<?xml version="1.0" encoding="utf-8"?>
<!-- Generator: Adobe Illustrator 21.0.0, SVG Export Plug-In . SVG Version: 6.00 Build 0)  -->
<svg version="1.1" id="Layer_1" xmlns="http://www.w3.org/2000/svg" xmlns:xlink="http://www.w3.org/1999/xlink" x="0px" y="0px"
	 viewBox="0 0 13.8 13.8" style="enable-background:new 0 0 13.8 13.8;" xml:space="preserve">
<style type="text/css">
	.st0{fill-rule:evenodd;clip-rule:evenodd;fill:#4DD1C1;}
</style>
<title>Artboard 1</title>
<path class="st0" d="M8.6,6.9L13.5,2c0.5-0.5,0.5-1.2,0-1.6c-0.5-0.5-1.2-0.5-1.6,0L6.9,5.3L2,0.3c-0.5-0.5-1.2-0.5-1.6,0
	c-0.5,0.5-0.5,1.2,0,1.6l4.9,4.9l-4.9,4.9c-0.5,0.5-0.5,1.2,0,1.6c0.5,0.5,1.2,0.5,1.6,0l4.9-4.9l4.9,4.9c0.5,0.5,1.2,0.5,1.6,0
	c0.5-0.5,0.5-1.2,0-1.6L8.6,6.9z M8.6,6.9"/>
</svg>
