<svg id="Layer_1" data-name="Layer 1" xmlns="http://www.w3.org/2000/svg" viewBox="0 0 234.16 69.98"><defs><style>.cls-1{fill:#4dd1c1;}</style></defs><title>Artboard 1</title><g id="_Group_" data-name="&lt;Group&gt;"><path id="_Path_" data-name="&lt;Path&gt;" class="cls-1" d="M20.38,0A20.4,20.4,0,0,0,0,20.38c0,4.57,2.94,11.86,9,22.29,4.29,7.4,8.51,13.52,8.69,13.78l2.67,3.86,2.7-3.84s.65-.93,1.65-2.45l1.19-1.79-1.18-1.8c0-.06-3.82-5.86-7.54-12.51C10.67,26.28,10,22.19,10,21c0-6.06,4.67-11,10.41-11s10.4,4.92,10.41,11c-.09,1.38-2.32,7.47-4.6,12.56l-.72,1.6,5.76,9.11,2.55-5.36c7-14.69,7-17.33,7-18.46A20.4,20.4,0,0,0,20.38,0Z"/><g id="_Group_2" data-name="&lt;Group&gt;"><g id="_Group_3" data-name="&lt;Group&gt;"><path id="_Compound_Path_" data-name="&lt;Compound Path&gt;" class="cls-1" d="M68.44,52.17a7.49,7.49,0,0,1-2.71,6.09,11.33,11.33,0,0,1-7.45,2.24,14.82,14.82,0,0,1-5.65-1,13.53,13.53,0,0,1-4.38-3l1.61-1.61a15.59,15.59,0,0,0,2,1.69,10,10,0,0,0,2,1.1,9,9,0,0,0,2.14.59,16.62,16.62,0,0,0,2.48.17,9,9,0,0,0,5.67-1.63,5.5,5.5,0,0,0,2.07-4.59A5.24,5.24,0,0,0,64.51,48a8,8,0,0,0-.8-.57,5.54,5.54,0,0,0-.86-.42,8.27,8.27,0,0,0-1.12-.34q-.63-.15-1.56-.28l-3.5-.55a10.27,10.27,0,0,1-5.36-2.2,6.79,6.79,0,0,1-2.41-5.54,7.63,7.63,0,0,1,2.52-6,10,10,0,0,1,6.88-2.22,12.9,12.9,0,0,1,4.76.78A13.83,13.83,0,0,1,67,33.12l-1.48,1.48a13,13,0,0,0-1.4-1.14,9.08,9.08,0,0,0-1.59-.89A8.51,8.51,0,0,0,60.55,32a13.82,13.82,0,0,0-2.39-.19A7.43,7.43,0,0,0,53,33.46,5.82,5.82,0,0,0,51.18,38,4.85,4.85,0,0,0,52.74,42a7.34,7.34,0,0,0,2,1.16,11.68,11.68,0,0,0,2.47.7l3.25.51a15.66,15.66,0,0,1,3.27.74,7,7,0,0,1,2.09,1.25,7.11,7.11,0,0,1,1.92,2.52A7.81,7.81,0,0,1,68.44,52.17Z"/><path id="_Compound_Path_2" data-name="&lt;Compound Path&gt;" class="cls-1" d="M72.79,39.85h2.16v20.4H72.79Z"/><path id="_Compound_Path_3" data-name="&lt;Compound Path&gt;" class="cls-1" d="M107.7,47.6a6.53,6.53,0,0,0-1.42-4.53,5.4,5.4,0,0,0-4.21-1.57A5.73,5.73,0,0,0,97.87,43a5.62,5.62,0,0,0-1.54,4.19v13H94.16V47.6a6.53,6.53,0,0,0-1.42-4.53,5.4,5.4,0,0,0-4.21-1.57,5.56,5.56,0,0,0-4.27,1.59,6.36,6.36,0,0,0-1.48,4.51V60.25H80.62V39.85h2.16v2.41a7.58,7.58,0,0,1,6.05-2.67,7.86,7.86,0,0,1,4,1,6.52,6.52,0,0,1,2.6,2.77,7.78,7.78,0,0,1,2.9-2.77,8.34,8.34,0,0,1,4-1,8.63,8.63,0,0,1,3,.51,6.77,6.77,0,0,1,2.33,1.44,7.49,7.49,0,0,1,2.12,5.67v13H107.7Z"/><path id="_Compound_Path_4" data-name="&lt;Compound Path&gt;" class="cls-1" d="M131.18,50.05a21.62,21.62,0,0,1-.53,4.76,7.84,7.84,0,0,1-2.09,3.91A5.81,5.81,0,0,1,126.46,60a8.18,8.18,0,0,1-2.9.49,9.13,9.13,0,0,1-3.24-.55,6.64,6.64,0,0,1-2.81-2.33V70h-2.16V39.85h2.16v2.62a6.65,6.65,0,0,1,2.81-2.33,9.13,9.13,0,0,1,3.24-.55,8.18,8.18,0,0,1,2.9.49,5.82,5.82,0,0,1,2.09,1.29,7.84,7.84,0,0,1,2.09,3.91A21.62,21.62,0,0,1,131.18,50.05Zm-2.16,0a25.39,25.39,0,0,0-.19-3.11,8.26,8.26,0,0,0-.8-2.75,5,5,0,0,0-1.76-1.95,6.47,6.47,0,0,0-6,0,5,5,0,0,0-1.76,1.95,8.24,8.24,0,0,0-.8,2.75,25.66,25.66,0,0,0,0,6.24,8.21,8.21,0,0,0,.8,2.73,5,5,0,0,0,1.76,1.95,6.47,6.47,0,0,0,6,0A5,5,0,0,0,128,55.91a8.23,8.23,0,0,0,.8-2.73A25.2,25.2,0,0,0,129,50.05Z"/><path id="_Compound_Path_5" data-name="&lt;Compound Path&gt;" class="cls-1" d="M137,58.81A5.87,5.87,0,0,1,135.84,55V30.12H138v24.8a4.17,4.17,0,0,0,.66,2.6,3,3,0,0,0,2.48.83h1.48v1.9h-1.86A4.55,4.55,0,0,1,137,58.81Z"/><path id="_Compound_Path_6" data-name="&lt;Compound Path&gt;" class="cls-1" d="M148.24,68.16a4.3,4.3,0,0,1-1.8,1,7.47,7.47,0,0,1-2.05.3h-1v-1.9h.8a6,6,0,0,0,1.46-.15,2.63,2.63,0,0,0,1-.49,2.93,2.93,0,0,0,.72-.87,7.57,7.57,0,0,0,.55-1.29l1.65-4.53-7.45-20.4h2.37l6.14,17.86,6.14-17.86h2.37l-9.48,25.94A5.42,5.42,0,0,1,148.24,68.16Z"/><path id="_Compound_Path_7" data-name="&lt;Compound Path&gt;" class="cls-1" d="M165.37,58.75a5.79,5.79,0,0,1-1.25-3.83V41.46h-2.79V39.85h2.79V30.37h2.16v9.48h4.61v1.61h-4.61V55a3.72,3.72,0,0,0,.76,2.5,3,3,0,0,0,2.37.89h1.48v1.9H169A4.49,4.49,0,0,1,165.37,58.75Z"/><path id="_Compound_Path_8" data-name="&lt;Compound Path&gt;" class="cls-1" d="M188.38,57.84a7.53,7.53,0,0,1-6,2.67A7.41,7.41,0,0,1,177,58.56a7.49,7.49,0,0,1-2.12-5.67v-13H177V52.51A6.52,6.52,0,0,0,178.42,57a5.39,5.39,0,0,0,4.21,1.57A5.56,5.56,0,0,0,186.9,57a6.36,6.36,0,0,0,1.48-4.51V39.85h2.16v20.4h-2.16Z"/><path id="_Compound_Path_9" data-name="&lt;Compound Path&gt;" class="cls-1" d="M205.91,41.84a5.57,5.57,0,0,0-2.09-.34,5.14,5.14,0,0,0-2.33.51,5.22,5.22,0,0,0-1.71,1.35,5.87,5.87,0,0,0-1.06,2,7.64,7.64,0,0,0-.36,2.35V60.25H196.2V39.85h2.16v2.71a5.73,5.73,0,0,1,2.52-2.2,8,8,0,0,1,3.45-.76A7.72,7.72,0,0,1,207,40a6.3,6.3,0,0,1,2.26,1.52l-1.57,1.57A5.62,5.62,0,0,0,205.91,41.84Z"/><path id="_Compound_Path_10" data-name="&lt;Compound Path&gt;" class="cls-1" d="M214.44,56.51a6,6,0,0,0,5,2.05,7.36,7.36,0,0,0,3.07-.57A9.06,9.06,0,0,0,225,56.1l1.61,1.27a15,15,0,0,1-1.54,1.35,9,9,0,0,1-1.65,1,7.92,7.92,0,0,1-1.88.59,12.45,12.45,0,0,1-2.28.19,7.92,7.92,0,0,1-6.45-2.67q-2.22-2.67-2.22-7.79t2.16-7.72a7.23,7.23,0,0,1,6-2.73,7.38,7.38,0,0,1,6,2.6q2.16,2.6,2.16,7.34v1H212.77A9.29,9.29,0,0,0,214.44,56.51Zm10.26-9q0-.53-.11-1a4.81,4.81,0,0,0-.19-.8,8.9,8.9,0,0,0-.34-.85A5.41,5.41,0,0,0,222,42.41a6.06,6.06,0,0,0-6.39,0,5.4,5.4,0,0,0-2.09,2.52l-.3.89a4.9,4.9,0,0,0-.19.78q-.06.4-.13.91t-.11,1.27h12Q224.75,48.06,224.7,47.53Z"/></g><g id="_Group_4" data-name="&lt;Group&gt;"><path id="_Compound_Path_11" data-name="&lt;Compound Path&gt;" class="cls-1" d="M234.16,33.11a3.15,3.15,0,0,1-.26,1.26,3.25,3.25,0,0,1-1.72,1.72,3.25,3.25,0,0,1-2.53,0,3.25,3.25,0,0,1-1.72-1.72,3.25,3.25,0,0,1,0-2.53,3.25,3.25,0,0,1,1.72-1.72,3.25,3.25,0,0,1,2.53,0,3.25,3.25,0,0,1,1.72,1.72A3.15,3.15,0,0,1,234.16,33.11Zm-.42,0a2.76,2.76,0,0,0-.22-1.1,3,3,0,0,0-.6-.91,2.86,2.86,0,0,0-.9-.62,2.75,2.75,0,0,0-2.19,0,2.86,2.86,0,0,0-.9.62,3,3,0,0,0-.6.91,2.82,2.82,0,0,0,0,2.2,3,3,0,0,0,.6.91,2.86,2.86,0,0,0,.9.62,2.75,2.75,0,0,0,2.19,0,2.86,2.86,0,0,0,.9-.62,3,3,0,0,0,.6-.91A2.76,2.76,0,0,0,233.74,33.11Zm-2.85.3h-.59v1.5h-.4V31.31H231a1.13,1.13,0,0,1,.43.08,1.16,1.16,0,0,1,.35.22,1,1,0,0,1,.24.34,1,1,0,0,1,.09.42.93.93,0,0,1-.23.65,1.21,1.21,0,0,1-.59.35l.9,1.53h-.47Zm.86-1a.64.64,0,0,0-.21-.49.77.77,0,0,0-.54-.2h-.7V33h.7a.77.77,0,0,0,.54-.19A.63.63,0,0,0,231.75,32.37Z"/></g><rect id="_Path_2" data-name="&lt;Path&gt;" class="cls-1" x="72.79" y="29.87" width="2.24" height="2.24" rx="0.87" ry="0.87"/></g></g></svg>