<?xml version="1.0" encoding="utf-8"?>
<!-- Generator: Adobe Illustrator 21.0.0, SVG Export Plug-In . SVG Version: 6.00 Build 0)  -->
<svg version="1.1" id="Layer_1" xmlns="http://www.w3.org/2000/svg" xmlns:xlink="http://www.w3.org/1999/xlink" x="0px" y="0px"
	 viewBox="0 0 21.8 16.6" style="enable-background:new 0 0 21.8 16.6;" xml:space="preserve">
<style type="text/css">
	.st0{fill:#131B24;}
</style>
<title>Artboard 1</title>
<g>
	<path class="st0" d="M0,2.8v11.1c0,1.5,1.2,2.8,2.8,2.8h8.9c1.5,0,2.8-1.2,2.8-2.8V12c0-0.3-0.2-0.5-0.5-0.5s-0.5,0.2-0.5,0.5v1.8
		c0,0.9-0.8,1.7-1.7,1.7H2.8c-0.9,0-1.7-0.8-1.7-1.7V2.8c0-0.9,0.8-1.7,1.7-1.7h8.9c0.9,0,1.7,0.8,1.7,1.7v1.8
		c0,0.3,0.2,0.5,0.5,0.5c0.3,0,0.5-0.2,0.5-0.5V2.8c0-1.5-1.2-2.8-2.8-2.8H2.8C1.2,0,0,1.2,0,2.8L0,2.8z M0,2.8"/>
	<path class="st0" d="M16.5,13.6c0.1,0.1,0.3,0.2,0.4,0.2c0.2,0,0.3-0.1,0.4-0.2l4.3-4.3c0.2-0.2,0.2-0.6,0-0.9l-4.3-4.3
		c-0.2-0.2-0.6-0.2-0.9,0c-0.2,0.2-0.2,0.6,0,0.9l3.2,3.2H8c-0.3,0-0.6,0.3-0.6,0.6c0,0.3,0.3,0.6,0.6,0.6h11.7l-3.2,3.2
		C16.3,13,16.3,13.4,16.5,13.6L16.5,13.6z M16.5,13.6"/>
</g>
</svg>
