<?xml version="1.0" encoding="utf-8"?>
<!-- Generator: Adobe Illustrator 21.0.0, SVG Export Plug-In . SVG Version: 6.00 Build 0)  -->
<svg version="1.1" id="Layer_1" xmlns="http://www.w3.org/2000/svg" xmlns:xlink="http://www.w3.org/1999/xlink" x="0px" y="0px"
	 viewBox="0 0 234.2 70" style="enable-background:new 0 0 234.2 70;" xml:space="preserve">
<style type="text/css">
	.st0{fill:#131B24;}
</style>
<title>Artboard 1</title>
<g>
	<g id="XMLID_205_">
		<path id="XMLID_364_" class="st0" d="M20.4,0C9.1,0,0,9.1,0,20.4c0,4.6,2.9,11.9,9,22.3c4.3,7.4,8.5,13.5,8.7,13.8l2.7,3.9
			l2.7-3.8c0,0,0.6-0.9,1.7-2.4l1.2-1.8l-1.2-1.8c0-0.1-3.8-5.9-7.5-12.5C10.7,26.3,10,22.2,10,21c0-6.1,4.7-11,10.4-11
			c5.7,0,10.4,4.9,10.4,11c-0.1,1.4-2.3,7.5-4.6,12.6l-0.7,1.6l5.8,9.1l2.5-5.4c7-14.7,7-17.3,7-18.5C40.8,9.1,31.6,0,20.4,0z"/>
		<g id="XMLID_206_">
			<g>
				<g id="XMLID_221_">
					<path id="XMLID_242_" class="st0" d="M68.4,52.2c0,2.6-0.9,4.6-2.7,6.1c-1.8,1.5-4.3,2.2-7.4,2.2c-2.2,0-4.1-0.3-5.6-1
						c-1.5-0.6-3-1.6-4.4-3l1.6-1.6c0.7,0.7,1.3,1.2,2,1.7c0.6,0.5,1.3,0.8,2,1.1c0.7,0.3,1.4,0.5,2.1,0.6c0.7,0.1,1.6,0.2,2.5,0.2
						c2.4,0,4.3-0.5,5.7-1.6c1.4-1.1,2.1-2.6,2.1-4.6c0-1.9-0.5-3.3-1.6-4.2c-0.3-0.2-0.5-0.4-0.8-0.6c-0.3-0.2-0.5-0.3-0.9-0.4
						c-0.3-0.1-0.7-0.2-1.1-0.3c-0.4-0.1-0.9-0.2-1.6-0.3l-3.5-0.6c-2.3-0.3-4.1-1.1-5.4-2.2c-1.6-1.3-2.4-3.2-2.4-5.5
						c0-2.5,0.8-4.5,2.5-6c1.7-1.5,4-2.2,6.9-2.2c1.9,0,3.4,0.3,4.8,0.8c1.3,0.5,2.6,1.3,3.9,2.5l-1.5,1.5c-0.5-0.4-0.9-0.8-1.4-1.1
						c-0.5-0.3-1-0.6-1.6-0.9c-0.6-0.3-1.2-0.4-1.9-0.6c-0.7-0.1-1.5-0.2-2.4-0.2c-2.2,0-3.9,0.6-5.1,1.7c-1.2,1.1-1.8,2.6-1.8,4.6
						c0,1.7,0.5,3.1,1.6,3.9c0.5,0.5,1.2,0.8,2,1.2c0.8,0.3,1.6,0.6,2.5,0.7l3.3,0.5c1.4,0.2,2.5,0.4,3.3,0.7
						c0.8,0.3,1.5,0.7,2.1,1.2c0.8,0.7,1.5,1.5,1.9,2.5C68.2,49.8,68.4,51,68.4,52.2z"/>
					<path id="XMLID_240_" class="st0" d="M72.8,39.9h2.2v20.4h-2.2V39.9z"/>
					<path id="XMLID_238_" class="st0" d="M107.7,47.6c0-2-0.5-3.5-1.4-4.5c-0.9-1-2.3-1.6-4.2-1.6c-1.8,0-3.2,0.5-4.2,1.5
						c-1,1-1.5,2.4-1.5,4.2v13h-2.2V47.6c0-2-0.5-3.5-1.4-4.5c-0.9-1-2.3-1.6-4.2-1.6c-1.9,0-3.3,0.5-4.3,1.6
						c-1,1.1-1.5,2.6-1.5,4.5v12.7h-2.2V39.9h2.2v2.4c1.5-1.8,3.5-2.7,6.1-2.7c1.5,0,2.8,0.3,4,1c1.1,0.6,2,1.6,2.6,2.8
						c0.8-1.2,1.7-2.1,2.9-2.8c1.2-0.6,2.5-1,4-1c1.1,0,2.1,0.2,3,0.5c0.9,0.3,1.7,0.8,2.3,1.4c1.4,1.4,2.1,3.2,2.1,5.7v13h-2.1
						V47.6z"/>
					<path id="XMLID_235_" class="st0" d="M131.2,50.1c0,1.6-0.2,3.2-0.5,4.8c-0.4,1.6-1.1,2.9-2.1,3.9c-0.5,0.5-1.2,1-2.1,1.3
						c-0.9,0.3-1.8,0.5-2.9,0.5c-1.2,0-2.3-0.2-3.2-0.6c-1-0.4-1.9-1.1-2.8-2.3V70h-2.2V39.9h2.2v2.6c0.9-1.2,1.8-2,2.8-2.3
						c1-0.4,2.1-0.6,3.2-0.6c1.1,0,2,0.2,2.9,0.5c0.9,0.3,1.6,0.8,2.1,1.3c1,1,1.7,2.3,2.1,3.9C131,46.9,131.2,48.4,131.2,50.1z
						 M129,50.1c0-1-0.1-2.1-0.2-3.1c-0.1-1-0.4-1.9-0.8-2.8c-0.4-0.8-1-1.5-1.8-1.9c-0.8-0.5-1.8-0.7-3-0.7c-1.2,0-2.2,0.2-3,0.7
						c-0.8,0.5-1.3,1.1-1.8,1.9c-0.4,0.8-0.7,1.7-0.8,2.8c-0.1,1-0.2,2.1-0.2,3.1c0,1.1,0.1,2.1,0.2,3.1c0.1,1,0.4,1.9,0.8,2.7
						c0.4,0.8,1,1.5,1.8,1.9c0.8,0.5,1.8,0.7,3,0.7c1.2,0,2.2-0.2,3-0.7c0.8-0.5,1.3-1.1,1.8-1.9c0.4-0.8,0.7-1.7,0.8-2.7
						C129,52.2,129,51.1,129,50.1z"/>
					<path id="XMLID_233_" class="st0" d="M137,58.8c-0.8-1-1.2-2.2-1.2-3.9V30.1h2.2v24.8c0,1.2,0.2,2.1,0.7,2.6
						c0.4,0.6,1.3,0.8,2.5,0.8h1.5v1.9h-1.9C139.1,60.2,137.8,59.8,137,58.8z"/>
					<path id="XMLID_231_" class="st0" d="M148.2,68.2c-0.5,0.5-1.1,0.8-1.8,1c-0.7,0.2-1.4,0.3-2.1,0.3h-1v-1.9h0.8
						c0.6,0,1.1,0,1.5-0.1c0.4-0.1,0.7-0.3,1-0.5c0.3-0.2,0.5-0.5,0.7-0.9c0.2-0.4,0.4-0.8,0.6-1.3l1.7-4.5l-7.4-20.4h2.4l6.1,17.9
						l6.1-17.9h2.4l-9.5,25.9C149.2,66.9,148.8,67.7,148.2,68.2z"/>
					<path id="XMLID_229_" class="st0" d="M165.4,58.7c-0.8-1-1.2-2.3-1.2-3.8V41.5h-2.8v-1.6h2.8v-9.5h2.2v9.5h4.6v1.6h-4.6V55
						c0,1.1,0.3,1.9,0.8,2.5c0.5,0.6,1.3,0.9,2.4,0.9h1.5v1.9H169C167.4,60.2,166.2,59.7,165.4,58.7z"/>
					<path id="XMLID_227_" class="st0" d="M188.4,57.8c-1.5,1.8-3.5,2.7-6,2.7c-2.3,0-4.1-0.6-5.4-1.9c-1.4-1.4-2.1-3.2-2.1-5.7v-13
						h2.2v12.7c0,2,0.5,3.5,1.4,4.5c0.9,1,2.3,1.6,4.2,1.6c1.9,0,3.3-0.5,4.3-1.6c1-1.1,1.5-2.6,1.5-4.5V39.9h2.2v20.4h-2.2V57.8z"
						/>
					<path id="XMLID_225_" class="st0" d="M205.9,41.8c-0.6-0.2-1.2-0.3-2.1-0.3c-0.9,0-1.7,0.2-2.3,0.5c-0.7,0.3-1.2,0.8-1.7,1.4
						c-0.5,0.6-0.8,1.2-1.1,2c-0.2,0.7-0.4,1.5-0.4,2.3v12.6h-2.2V39.9h2.2v2.7c0.6-1,1.4-1.7,2.5-2.2c1.1-0.5,2.2-0.8,3.4-0.8
						c1,0,1.9,0.1,2.6,0.4c0.8,0.3,1.5,0.8,2.3,1.5l-1.6,1.6C207,42.5,206.5,42.1,205.9,41.8z"/>
					<path id="XMLID_222_" class="st0" d="M214.4,56.5c1.1,1.4,2.8,2.1,5,2.1c1.2,0,2.2-0.2,3.1-0.6c0.8-0.4,1.7-1,2.6-1.9l1.6,1.3
						c-0.5,0.5-1,1-1.5,1.4c-0.5,0.4-1.1,0.7-1.7,1c-0.6,0.3-1.2,0.5-1.9,0.6c-0.7,0.1-1.4,0.2-2.3,0.2c-2.8,0-5-0.9-6.5-2.7
						c-1.5-1.8-2.2-4.4-2.2-7.8c0-3.3,0.7-5.9,2.2-7.7c1.4-1.8,3.4-2.7,6-2.7c2.6,0,4.6,0.9,6,2.6c1.4,1.7,2.2,4.2,2.2,7.3v1h-14.2
						C212.8,53.1,213.3,55.1,214.4,56.5z M224.7,47.5c0-0.4-0.1-0.7-0.1-1c0-0.3-0.1-0.6-0.2-0.8c-0.1-0.3-0.2-0.5-0.3-0.8
						c-0.5-1.1-1.2-1.9-2.1-2.5c-0.9-0.6-2-0.9-3.2-0.9c-1.2,0-2.3,0.3-3.2,0.9c-0.9,0.6-1.6,1.4-2.1,2.5c-0.1,0.3-0.2,0.6-0.3,0.9
						c-0.1,0.3-0.1,0.5-0.2,0.8c0,0.3-0.1,0.6-0.1,0.9c0,0.3-0.1,0.8-0.1,1.3h12C224.8,48.3,224.7,47.9,224.7,47.5z"/>
				</g>
				<g id="XMLID_215_">
					<path id="XMLID_216_" class="st0" d="M234.2,33.1c0,0.4-0.1,0.9-0.3,1.3c-0.2,0.4-0.4,0.7-0.7,1c-0.3,0.3-0.6,0.5-1,0.7
						c-0.4,0.2-0.8,0.3-1.3,0.3s-0.9-0.1-1.3-0.3c-0.4-0.2-0.7-0.4-1-0.7c-0.3-0.3-0.5-0.6-0.7-1c-0.2-0.4-0.3-0.8-0.3-1.3
						s0.1-0.9,0.3-1.3c0.2-0.4,0.4-0.7,0.7-1c0.3-0.3,0.6-0.5,1-0.7c0.4-0.2,0.8-0.3,1.3-0.3s0.9,0.1,1.3,0.3c0.4,0.2,0.7,0.4,1,0.7
						c0.3,0.3,0.5,0.6,0.7,1C234.1,32.2,234.2,32.7,234.2,33.1z M233.7,33.1c0-0.4-0.1-0.8-0.2-1.1c-0.1-0.3-0.4-0.6-0.6-0.9
						c-0.3-0.3-0.6-0.5-0.9-0.6c-0.3-0.2-0.7-0.2-1.1-0.2c-0.4,0-0.8,0.1-1.1,0.2c-0.3,0.2-0.6,0.4-0.9,0.6
						c-0.3,0.3-0.5,0.6-0.6,0.9c-0.1,0.3-0.2,0.7-0.2,1.1c0,0.4,0.1,0.8,0.2,1.1c0.1,0.3,0.4,0.6,0.6,0.9c0.3,0.3,0.6,0.5,0.9,0.6
						c0.3,0.2,0.7,0.2,1.1,0.2c0.4,0,0.8-0.1,1.1-0.2c0.3-0.2,0.6-0.4,0.9-0.6c0.3-0.3,0.5-0.6,0.6-0.9
						C233.7,33.9,233.7,33.5,233.7,33.1z M230.9,33.4h-0.6v1.5h-0.4v-3.6h1.1c0.1,0,0.3,0,0.4,0.1c0.1,0.1,0.3,0.1,0.4,0.2
						c0.1,0.1,0.2,0.2,0.2,0.3c0.1,0.1,0.1,0.3,0.1,0.4c0,0.3-0.1,0.5-0.2,0.7c-0.2,0.2-0.3,0.3-0.6,0.3l0.9,1.5h-0.5L230.9,33.4z
						 M231.8,32.4c0-0.2-0.1-0.4-0.2-0.5c-0.1-0.1-0.3-0.2-0.5-0.2h-0.7V33h0.7c0.2,0,0.4-0.1,0.5-0.2
						C231.7,32.7,231.8,32.6,231.8,32.4z"/>
				</g>
				<path id="XMLID_214_" class="st0" d="M74.1,32.1h-0.5c-0.5,0-0.9-0.4-0.9-0.9v-0.5c0-0.5,0.4-0.9,0.9-0.9h0.5
					c0.5,0,0.9,0.4,0.9,0.9v0.5C75,31.7,74.6,32.1,74.1,32.1z"/>
			</g>
		</g>
	</g>
</g>
</svg>
