<?xml version="1.0" encoding="utf-8"?>
<!-- Generator: Adobe Illustrator 21.0.0, SVG Export Plug-In . SVG Version: 6.00 Build 0)  -->
<svg version="1.1" id="Layer_1" xmlns="http://www.w3.org/2000/svg" xmlns:xlink="http://www.w3.org/1999/xlink" x="0px" y="0px"
	 viewBox="0 0 24.7 25.6" style="enable-background:new 0 0 24.7 25.6;" xml:space="preserve">
<style type="text/css">
	.st0{fill:#131B24;}
</style>
<title>Artboard 1</title>
<path class="st0" d="M24.4,23.3L18.3,17c1.6-1.9,2.4-4.2,2.4-6.7C20.7,4.6,16.1,0,10.3,0C4.6,0,0,4.6,0,10.3
	c0,5.7,4.6,10.3,10.3,10.3c2.1,0,4.2-0.6,5.9-1.9l6.1,6.4c0.3,0.3,0.6,0.4,1,0.4c0.3,0,0.7-0.1,0.9-0.4
	C24.9,24.7,24.9,23.9,24.4,23.3L24.4,23.3z M10.3,2.7c4.2,0,7.6,3.4,7.6,7.6c0,4.2-3.4,7.6-7.6,7.6c-4.2,0-7.6-3.4-7.6-7.6
	C2.7,6.1,6.1,2.7,10.3,2.7L10.3,2.7z M10.3,2.7"/>
</svg>
